<?xml version="1.0" encoding="UTF-8" standalone="no"?>
<svg
   version="1.1"
   id="Capa_1"
   x="0px"
   y="0px"
   viewBox="0 0 417.00201 512"
   xml:space="preserve"
   width="417.00201"
   height="512"
   xmlns="http://www.w3.org/2000/svg"
   xmlns:svg="http://www.w3.org/2000/svg"><defs
   id="defs14" />
<g
   id="g14"
   transform="translate(-47.499001)">
	<polyline
   style="fill:#e0e7ef"
   points="415.881,210.129 415.881,57.894 97.89,57.894 97.89,454.106 415.881,454.106 &#10;		415.881,298.991 	"
   id="polyline1" />
	<rect
   x="145.905"
   y="110.685"
   style="fill:#ffffff"
   width="220.19099"
   height="295.453"
   id="rect1" />
	<polygon
   style="fill:#e0e7ef"
   points="415.881,210.129 415.881,57.894 97.89,57.894 97.89,454.106 415.881,454.106 415.881,298.991 "
   id="polygon1" />
	
		<polyline
   style="fill:none;stroke:#000000;stroke-width:20;stroke-linecap:round;stroke-linejoin:round;stroke-miterlimit:10"
   points="&#10;		415.881,210.129 415.881,57.894 97.89,57.894 97.89,454.106 415.881,454.106 415.881,298.991 	"
   id="polyline2" />
	<rect
   x="145.905"
   y="110.685"
   style="fill:#ffffff"
   width="220.19099"
   height="295.453"
   id="rect2" />
	<g
   id="g5"
   transform="translate(278.98254,3.1920202)">
		
			
		
			<line
   style="fill:none;stroke:#000000;stroke-width:20.8915;stroke-linecap:round;stroke-linejoin:round;stroke-miterlimit:10;stroke-dasharray:24.0253, 44.9167"
   x1="-22.225809"
   y1="402.37305"
   x2="-22.226725"
   y2="84.633591"
   id="line3" />
		
			
		
			
	</g>
	
		<line
   style="fill:none;stroke:#000000;stroke-width:20;stroke-linecap:round;stroke-linejoin:round;stroke-miterlimit:10"
   x1="366.095"
   y1="57.894001"
   x2="366.095"
   y2="10"
   id="line6" />
	
		<line
   style="fill:none;stroke:#000000;stroke-width:20;stroke-linecap:round;stroke-linejoin:round;stroke-miterlimit:10"
   x1="415.88101"
   y1="110.684"
   x2="454.50101"
   y2="110.684"
   id="line7" />
	
		<line
   style="fill:none;stroke:#000000;stroke-width:20;stroke-linecap:round;stroke-linejoin:round;stroke-miterlimit:10"
   x1="145.905"
   y1="57.894001"
   x2="145.905"
   y2="10"
   id="line8" />
	
		<line
   style="fill:none;stroke:#000000;stroke-width:20;stroke-linecap:round;stroke-linejoin:round;stroke-miterlimit:10"
   x1="96.119003"
   y1="110.684"
   x2="57.499001"
   y2="110.684"
   id="line9" />
	
		<line
   style="fill:none;stroke:#000000;stroke-width:20;stroke-linecap:round;stroke-linejoin:round;stroke-miterlimit:10"
   x1="145.905"
   y1="454.10599"
   x2="145.905"
   y2="502"
   id="line10" />
	
		<line
   style="fill:none;stroke:#000000;stroke-width:20;stroke-linecap:round;stroke-linejoin:round;stroke-miterlimit:10"
   x1="96.119003"
   y1="401.31601"
   x2="57.499001"
   y2="401.31601"
   id="line11" />
	
		<line
   style="fill:none;stroke:#000000;stroke-width:20;stroke-linecap:round;stroke-linejoin:round;stroke-miterlimit:10"
   x1="366.095"
   y1="454.10599"
   x2="366.095"
   y2="502"
   id="line12" />
	
		<line
   style="fill:none;stroke:#000000;stroke-width:20;stroke-linecap:round;stroke-linejoin:round;stroke-miterlimit:10"
   x1="415.88101"
   y1="401.31601"
   x2="454.50101"
   y2="401.31601"
   id="line13" />
	
		<line
   style="fill:none;stroke:#000000;stroke-width:20;stroke-linecap:round;stroke-linejoin:round;stroke-miterlimit:10"
   x1="415.88101"
   y1="256"
   x2="415.88101"
   y2="256"
   id="line14" />
</g>















</svg>
